# xmcd
#
# Track frame offsets:
#	150
#	12557
#	26267
#	48645
#	60997
#	77047
#	91730
#	103462
#	117580
#	129470
#	145975
#	160670
#	185985
#	199220
#	213447
#	228725
#	250610
#	270005
#	283037
#	292752
#	309990
#
# Disc length: 4276
#
# Revision: 4
# Processed by: cddbd v1.5.1PL0 Copyright (c) Steve Scherf et al.
# Submitted via: Grip 2.91
# Normalized: r3:TSWAP
#
DISCID=2b10b215
DTITLE=Great Bluesmen - The Great Bluesmen
DYEAR=1900
DGENRE=
TTITLE0=Homesick James - Set A Date
TTITLE1=John Lee Hooker - Dusty Road
TTITLE2=Muddy Waters - Nineteen Years Old
TTITLE3=Jesse Fuller - San Francisco Bay Blues
TTITLE4=Mance Lipscomb - Blues in G
TTITLE5=Mississippi John Hurt - Moanin' the Blues
TTITLE6=Johnny Shines - Dynaflow Blues
TTITLE7=Sonny Terry - Mountain Blues
TTITLE8=Joe Turner - It's All Right Baby
TTITLE9=Brownie McGhee and Sonny Terry - Key to the Highway
TTITLE10=Otis Spann - Burning Fire
TTITLE11=Lightning Hopkins - Cotton Field Blues
TTITLE12=Big Bill Broonzy - Louise, Louise Blues
TTITLE13=Johnny Young - Tighten Up On It
TTITLE14=James Cotton - Ain't Nobody's Business
TTITLE15=Jimmy Rushing - How Long, How Long Blues
TTITLE16=Skip James - Cypress Grove Blues
TTITLE17=J. B. Hutto - Please Help
TTITLE18=Fred McDowell - Fred's Rambling Blues
TTITLE19=Robert Pete Williams - On My Way From Texas
TTITLE20=Otis Rush - It's a Mean Old World
EXTD=
EXTT0=Homesick James
EXTT1=John Lee Hooker
EXTT2=Muddy Waters
EXTT3=Jesse Fuller
EXTT4=Mance Lipscomb
EXTT5=Mississippi John Hurt
EXTT6=Johnny Shines
EXTT7=Sonny Terry
EXTT8=Joe Turner and Pete Johnson
EXTT9=Brownie McGhee and Sonny Terry
EXTT10=Otis Spann
EXTT11=Lighting Hopkins
EXTT12=Big Bill Broonzy
EXTT13=Johnny Young
EXTT14=James Cotton
EXTT15=Jimmy Rushing
EXTT16=Skip James
EXTT17=J.B. Hutto
EXTT18=Fre McDowell
EXTT19=Robert Pete Williams
EXTT20=Otis Rush
PLAYORDER=
